<svg width="1101" height="440" viewBox="0 0 1101 440" fill="none" xmlns="http://www.w3.org/2000/svg">
<path d="M1099 438.319L977.774 276.104L992.811 270.357L979.167 207.538L1008.81 181.005L1066.28 33.5085L830.537 104.92L682.517 112.729L659.555 78.3294L542.567 113.774L491.998 96.7919L461.314 129.159L443.287 97.924L372.252 127.65L371.556 100.072L206.64 128.782L27.2685 3.26022L97.0548 190.73L162.864 241.647L3 430.887L255.322 352.48L258.893 374.455L331.524 306.498L380.351 353.293L465.175 320.461L591.859 375.703L568.287 330.998L590.059 310.939L668.728 343.191L674.099 405.11L754.307 292.564L1098.94 438.406L1099 438.319Z" fill="white" stroke="black" stroke-width="2"/>
<path d="M245.916 189.656L83.7588 76.1812L120.074 173.719L202.372 237.351L84.6877 376.69L269.778 319.154L245.916 189.656Z" fill="black"/>
<path d="M1020.24 76.0941L838.172 131.249L847.984 191.717L816.022 208.931L853.586 230.616L883.516 319.155L1017.14 374.629L934.055 263.448L960.995 253.142L951.821 210.876L925.463 218.772L985.641 164.894L1020.24 76.0941Z" fill="black"/>
<path d="M332.743 189.656L351.932 165.852L431.646 132.498L451.125 166.258L363.253 213.111L391.353 212.182L408.249 217.379L364.269 250.123L433.678 212.444L379.219 319.155L336.604 270.444L325.776 198.336L332.743 189.656Z" fill="black"/>
<path d="M277.791 319.155L255.786 183.937L210.849 155.837L344.964 132.498L345.69 161.294L317.474 194.155L295.847 204.925L318.606 199.468L322.989 228.352L296.427 220.514L319.825 279.82L277.791 319.155Z" fill="black"/>
<path d="M617.752 123.876L541.347 142.251L499.893 128.317L478.789 150.583L493.13 195.229L536.877 174.851L519.982 277.643L540.621 319.155L582.627 280.459L555.949 174.735L606.199 179.583L617.752 123.876Z" fill="black"/>
<path d="M691.313 175.228L669.744 142.948L625.271 123.876L612.963 183.589L619.204 254.797L605.792 186.927L568.229 183.444L591.336 278.601L626.752 302.434L684.839 319.155L674.04 214.969L691.313 175.228Z" fill="black"/>
<path d="M844.355 238.192L797.937 208.002L837.736 186.085L828.128 132.498L679.933 140.306L702.024 173.748L685.304 216.159L694.245 319.184L753.522 221.675L774.017 253.171L875.91 319.184L844.326 238.192H844.355ZM755.583 173.545L790.36 173.022L755.845 194.184L755.583 173.545Z" fill="black"/>
<path d="M511.099 281.243L526.832 188.466L488.949 205.012L473.099 162.746L406.448 203.358L449.499 203.764L391.817 319.155L443.838 301.244L452.547 283.013L479.747 266.38L488.485 300.605L531.071 319.184L511.07 281.272L511.099 281.243ZM458.091 253.636L473.273 220.746L476.176 238.076L458.12 253.607L458.091 253.636Z" fill="black"/>
</svg>
